<svg xmlns="http://www.w3.org/2000/svg" version="1.1" class="w100 h-auto" width="660" height="400" viewBox="0 0 585 395"><g></g><g class="chart-area" font-family="sans-serif" transform="translate(100, 20)"><g transform="translate(0,300)" fill="none" font-size="10" font-family="sans-serif" text-anchor="middle"><path class="domain" stroke="currentColor" d="M0,6V0H410V6"></path><g class="tick" opacity="1" transform="translate(35.232249502322496,0)"><line stroke="currentColor" y2="6"></line><text fill="currentColor" y="9" dy="0.71em" style="font-size: 12px;">2010</text></g><g class="tick" opacity="1" transform="translate(84.88387524883875,0)"><line stroke="currentColor" y2="6"></line><text fill="currentColor" y="9" dy="0.71em" style="font-size: 12px;">2012</text></g><g class="tick" opacity="1" transform="translate(134.60351692103515,0)"><line stroke="currentColor" y2="6"></line><text fill="currentColor" y="9" dy="0.71em" style="font-size: 12px;">2014</text></g><g class="tick" opacity="1" transform="translate(184.2551426675514,0)"><line stroke="currentColor" y2="6"></line><text fill="currentColor" y="9" dy="0.71em" style="font-size: 12px;">2016</text></g><g class="tick" opacity="1" transform="translate(233.97478433974783,0)"><line stroke="currentColor" y2="6"></line><text fill="currentColor" y="9" dy="0.71em" style="font-size: 12px;">2018</text></g><g class="tick" opacity="1" transform="translate(283.6264100862641,0)"><line stroke="currentColor" y2="6"></line><text fill="currentColor" y="9" dy="0.71em" style="font-size: 12px;">2020</text></g><g class="tick" opacity="1" transform="translate(333.34605175846053,0)"><line stroke="currentColor" y2="6"></line><text fill="currentColor" y="9" dy="0.71em" style="font-size: 12px;">2022</text></g><g class="tick" opacity="1" transform="translate(382.99767750497676,0)"><line stroke="currentColor" y2="6"></line><text fill="currentColor" y="9" dy="0.71em" style="font-size: 12px;">2024</text></g></g><g class="grid-lines" transform="translate(0,300)" fill="none" font-size="10" font-family="sans-serif" text-anchor="middle"><path class="domain" stroke="currentColor" d="M0,-300V0H410V-300"></path><g class="tick" opacity="1" transform="translate(35.232249502322496,0)"><line stroke="currentColor" y2="-300" style="stroke: #ccc; fill: none;"></line></g><g class="tick" opacity="1" transform="translate(84.88387524883875,0)"><line stroke="currentColor" y2="-300" style="stroke: #ccc; fill: none;"></line></g><g class="tick" opacity="1" transform="translate(134.60351692103515,0)"><line stroke="currentColor" y2="-300" style="stroke: #ccc; fill: none;"></line></g><g class="tick" opacity="1" transform="translate(184.2551426675514,0)"><line stroke="currentColor" y2="-300" style="stroke: #ccc; fill: none;"></line></g><g class="tick" opacity="1" transform="translate(233.97478433974783,0)"><line stroke="currentColor" y2="-300" style="stroke: #ccc; fill: none;"></line></g><g class="tick" opacity="1" transform="translate(283.6264100862641,0)"><line stroke="currentColor" y2="-300" style="stroke: #ccc; fill: none;"></line></g><g class="tick" opacity="1" transform="translate(333.34605175846053,0)"><line stroke="currentColor" y2="-300" style="stroke: #ccc; fill: none;"></line></g><g class="tick" opacity="1" transform="translate(382.99767750497676,0)"><line stroke="currentColor" y2="-300" style="stroke: #ccc; fill: none;"></line></g></g><text x="205" y="360" class="axis-label x-axis-label" style="text-anchor: middle; font-weight: bold;">Year</text><g fill="none" font-size="10" font-family="sans-serif" text-anchor="end"><path class="domain" stroke="currentColor" d="M-6,300H0V0H-6"></path><g class="tick" opacity="1" transform="translate(0,300)"><line stroke="currentColor" x2="-6"></line><text fill="currentColor" x="-9" dy="0.32em" style="font-size: 12px;">0.00%</text></g><g class="tick" opacity="1" transform="translate(0,278.57142857142856)"><line stroke="currentColor" x2="-6"></line><text fill="currentColor" x="-9" dy="0.32em" style="font-size: 12px;">0.50%</text></g><g class="tick" opacity="1" transform="translate(0,257.14285714285717)"><line stroke="currentColor" x2="-6"></line><text fill="currentColor" x="-9" dy="0.32em" style="font-size: 12px;">1.00%</text></g><g class="tick" opacity="1" transform="translate(0,235.71428571428575)"><line stroke="currentColor" x2="-6"></line><text fill="currentColor" x="-9" dy="0.32em" style="font-size: 12px;">1.50%</text></g><g class="tick" opacity="1" transform="translate(0,214.28571428571428)"><line stroke="currentColor" x2="-6"></line><text fill="currentColor" x="-9" dy="0.32em" style="font-size: 12px;">2.00%</text></g><g class="tick" opacity="1" transform="translate(0,192.85714285714283)"><line stroke="currentColor" x2="-6"></line><text fill="currentColor" x="-9" dy="0.32em" style="font-size: 12px;">2.50%</text></g><g class="tick" opacity="1" transform="translate(0,171.42857142857144)"><line stroke="currentColor" x2="-6"></line><text fill="currentColor" x="-9" dy="0.32em" style="font-size: 12px;">3.00%</text></g><g class="tick" opacity="1" transform="translate(0,150)"><line stroke="currentColor" x2="-6"></line><text fill="currentColor" x="-9" dy="0.32em" style="font-size: 12px;">3.50%</text></g><g class="tick" opacity="1" transform="translate(0,128.57142857142858)"><line stroke="currentColor" x2="-6"></line><text fill="currentColor" x="-9" dy="0.32em" style="font-size: 12px;">4.00%</text></g><g class="tick" opacity="1" transform="translate(0,107.14285714285717)"><line stroke="currentColor" x2="-6"></line><text fill="currentColor" x="-9" dy="0.32em" style="font-size: 12px;">4.50%</text></g><g class="tick" opacity="1" transform="translate(0,85.71428571428571)"><line stroke="currentColor" x2="-6"></line><text fill="currentColor" x="-9" dy="0.32em" style="font-size: 12px;">5.00%</text></g><g class="tick" opacity="1" transform="translate(0,64.28571428571429)"><line stroke="currentColor" x2="-6"></line><text fill="currentColor" x="-9" dy="0.32em" style="font-size: 12px;">5.50%</text></g><g class="tick" opacity="1" transform="translate(0,42.857142857142904)"><line stroke="currentColor" x2="-6"></line><text fill="currentColor" x="-9" dy="0.32em" style="font-size: 12px;">6.00%</text></g><g class="tick" opacity="1" transform="translate(0,21.428571428571452)"><line stroke="currentColor" x2="-6"></line><text fill="currentColor" x="-9" dy="0.32em" style="font-size: 12px;">6.50%</text></g><g class="tick" opacity="1" transform="translate(0,0)"><line stroke="currentColor" x2="-6"></line><text fill="currentColor" x="-9" dy="0.32em" style="font-size: 12px;">7.00%</text></g></g><g class="grid-lines" fill="none" font-size="10" font-family="sans-serif" text-anchor="end"><path class="domain" stroke="currentColor" d="M410,300H0V0H410"></path><g class="tick" opacity="1" transform="translate(0,300)"><line stroke="currentColor" x2="410" style="stroke: #ccc; fill: none;"></line></g><g class="tick" opacity="1" transform="translate(0,278.57142857142856)"><line stroke="currentColor" x2="410" style="stroke: #ccc; fill: none;"></line></g><g class="tick" opacity="1" transform="translate(0,257.14285714285717)"><line stroke="currentColor" x2="410" style="stroke: #ccc; fill: none;"></line></g><g class="tick" opacity="1" transform="translate(0,235.71428571428575)"><line stroke="currentColor" x2="410" style="stroke: #ccc; fill: none;"></line></g><g class="tick" opacity="1" transform="translate(0,214.28571428571428)"><line stroke="currentColor" x2="410" style="stroke: #ccc; fill: none;"></line></g><g class="tick" opacity="1" transform="translate(0,192.85714285714283)"><line stroke="currentColor" x2="410" style="stroke: #ccc; fill: none;"></line></g><g class="tick" opacity="1" transform="translate(0,171.42857142857144)"><line stroke="currentColor" x2="410" style="stroke: #ccc; fill: none;"></line></g><g class="tick" opacity="1" transform="translate(0,150)"><line stroke="currentColor" x2="410" style="stroke: #ccc; fill: none;"></line></g><g class="tick" opacity="1" transform="translate(0,128.57142857142858)"><line stroke="currentColor" x2="410" style="stroke: #ccc; fill: none;"></line></g><g class="tick" opacity="1" transform="translate(0,107.14285714285717)"><line stroke="currentColor" x2="410" style="stroke: #ccc; fill: none;"></line></g><g class="tick" opacity="1" transform="translate(0,85.71428571428571)"><line stroke="currentColor" x2="410" style="stroke: #ccc; fill: none;"></line></g><g class="tick" opacity="1" transform="translate(0,64.28571428571429)"><line stroke="currentColor" x2="410" style="stroke: #ccc; fill: none;"></line></g><g class="tick" opacity="1" transform="translate(0,42.857142857142904)"><line stroke="currentColor" x2="410" style="stroke: #ccc; fill: none;"></line></g><g class="tick" opacity="1" transform="translate(0,21.428571428571452)"><line stroke="currentColor" x2="410" style="stroke: #ccc; fill: none;"></line></g><g class="tick" opacity="1" transform="translate(0,0)"><line stroke="currentColor" x2="410" style="stroke: #ccc; fill: none;"></line></g></g><g class="lines"><path class="line" d="M2.108,300L4.149,300L6.257,300L8.298,300L10.406,300L12.515,300L14.419,300L16.528,300L18.568,300L20.677,300L22.717,300L24.826,300L26.934,300L28.975,299.881L31.083,300L33.124,300L35.232,300L37.341,300L39.245,300L41.354,300L43.394,300L45.503,300L47.543,300L49.652,300L51.76,300L53.801,300L55.909,300L57.95,300L60.058,300L62.167,300L64.071,299.957L66.179,300L68.22,299.957L70.328,300L72.369,299.914L74.477,299.96L76.586,299.915L78.626,299.872L80.735,299.96L82.775,299.958L84.884,299.963L86.992,299.895L88.965,299.772L91.073,299.662L93.114,298.897L95.222,297.608L97.263,297.098L99.371,294.643L101.48,293.876L103.52,291.708L105.629,291.167L107.669,289.064L109.778,283.214L111.886,280.879L113.791,277.005L115.899,271.822L117.94,268.112L120.048,265.848L122.089,259.48L124.197,251.265L126.306,248.686L128.346,248.161L130.455,246.882L132.495,243.805L134.604,234.249L136.712,230.132L138.616,227.494L140.725,221.745L142.765,210.772L144.874,203.149L146.914,194.559L149.023,188.341L151.131,189.716L153.172,188.949L155.28,191.486L157.321,184.496L159.429,179.144L161.538,181.39L163.442,179.377L165.551,178.231L167.591,166.308L169.7,162.382L171.74,155.02L173.849,155.001L175.957,156.735L177.998,159.369L180.106,159.918L182.147,157.642L184.255,152.876L186.364,158.861L188.336,162.366L190.445,162.788L192.485,158.595L194.594,158.083L196.634,159.839L198.743,161.795L200.851,172.088L202.892,187.921L205,189.572L207.04,187.435L209.149,193.5L211.257,202.805L213.162,204.166L215.27,211.33L217.311,215.027L219.419,220.781L221.46,227.066L223.568,233.323L225.677,233.256L227.717,244.11L229.826,246.427L231.866,249.158L233.975,251.794L236.083,256.89L237.988,264.223L240.096,264.261L242.137,265.256L244.245,268.839L246.286,272.638L248.394,275.071L250.503,275.449L252.543,277.286L254.652,278.476L256.692,278.79L258.801,279.011L260.909,280.631L262.814,283.524L264.922,283.9L266.963,285.485L269.071,286.177L271.111,287.51L273.22,288.658L275.328,289.809L277.369,289.93L279.477,290.963L281.518,289.987L283.626,290.273L285.735,291.576L287.707,291.727L289.816,291.776L291.856,292.989L293.965,293.043L296.005,292.748L298.114,294.229L300.222,293.336L302.263,293.99L304.371,295.008L306.412,295.943L308.52,295.524L310.629,296.234L312.533,294.676L314.642,295.424L316.682,295.191L318.791,294.601L320.831,295.201L322.94,295.3L325.048,295.609L327.089,296.054L329.197,296.715L331.238,296.239L333.346,296.83L335.455,295.912L337.359,296.374L339.467,296.274L341.508,296.931L343.616,296.372L345.657,296.981L347.765,297.92L349.874,297.108L351.914,297.379L354.023,298.413L356.063,296.367L358.172,296.324L360.28,297.21L362.185,297.571L364.293,297.216L366.334,297.32L368.442,297.125L370.483,298.058L372.591,297.682L374.7,297.364L376.74,298.173L378.849,296.801L380.889,298.053L382.998,298.172L385.106,294.593L387.079,296.529L389.187,295.376L391.228,296.022L393.336,296.916L395.377,296.221L397.485,296.677L399.594,296.257L401.634,296.496L403.743,295.766L405.783,297.91L407.892,296.266L410,296.876" data-legend="angularjs" style="stroke: rgb(31, 119, 180); fill: none;"></path><path class="line" d="M2.108,300L4.149,300L6.257,300L8.298,300L10.406,300L12.515,300L14.419,300L16.528,300L18.568,300L20.677,300L22.717,300L24.826,300L26.934,300L28.975,300L31.083,300L33.124,300L35.232,300L37.341,300L39.245,300L41.354,300L43.394,300L45.503,300L47.543,300L49.652,300L51.76,300L53.801,300L55.909,300L57.95,300L60.058,300L62.167,300L64.071,300L66.179,300L68.22,300L70.328,300L72.369,300L74.477,300L76.586,300L78.626,300L80.735,300L82.775,300L84.884,300L86.992,300L88.965,300L91.073,300L93.114,300L95.222,300L97.263,300L99.371,300L101.48,300L103.52,300L105.629,300L107.669,300L109.778,300L111.886,300L113.791,300L115.899,299.975L117.94,300L120.048,300L122.089,300L124.197,300L126.306,300L128.346,300L130.455,299.975L132.495,299.974L134.604,300L136.712,300L138.616,300L140.725,300L142.765,299.975L144.874,300L146.914,299.976L149.023,299.973L151.131,300L153.172,299.975L155.28,299.948L157.321,299.972L159.429,299.974L161.538,299.923L163.442,299.521L165.551,299.68L167.591,299.043L169.7,298.616L171.74,298.581L173.849,298.28L175.957,298.123L177.998,297.162L180.106,294.55L182.147,289.09L184.255,278.123L186.364,275.245L188.336,270.372L190.445,266.343L192.485,257.06L194.594,248.524L196.634,242.461L198.743,236.752L200.851,226.763L202.892,216.331L205,218.98L207.04,212.91L209.149,211.147L211.257,202.112L213.162,202.53L215.27,200.18L217.311,197.492L219.419,189.459L221.46,181.573L223.568,176.181L225.677,176.601L227.717,177.992L229.826,169.484L231.866,172.433L233.975,170.08L236.083,174.496L237.988,177.682L240.096,171.71L242.137,168.357L244.245,165.502L246.286,168.825L248.394,163.123L250.503,168.679L252.543,170.772L254.652,174.608L256.692,171.061L258.801,173.221L260.909,169.624L262.814,172.334L264.922,178.156L266.963,175.845L269.071,169.117L271.111,176.604L273.22,179.556L275.328,173.187L277.369,179.81L279.477,175.979L281.518,178.634L283.626,189.894L285.735,180.45L287.707,189.665L289.816,196.04L291.856,199.559L293.965,201.587L296.005,193.055L298.114,202.859L300.222,202.863L302.263,209.427L304.371,215.845L306.412,214.715L308.52,217.908L310.629,219.563L312.533,213.887L314.642,220.511L316.682,215.806L318.791,213.213L320.831,212.287L322.94,213.01L325.048,213.747L327.089,221.337L329.197,225.723L331.238,220.911L333.346,222.894L335.455,221.186L337.359,223.496L339.467,229.252L341.508,223.617L343.616,221.317L345.657,224.639L347.765,226.97L349.874,229.676L351.914,236.321L354.023,232.46L356.063,225.05L358.172,224.648L360.28,223.545L362.185,229.861L364.293,228.317L366.334,216.082L368.442,229.09L370.483,225.793L372.591,223.929L374.7,220.749L376.74,224.774L378.849,222.177L380.889,217.724L382.998,208.521L385.106,213.312L387.079,220.533L389.187,214.024L391.228,219.438L393.336,210.759L395.377,210.716L397.485,217.679L399.594,217.89L401.634,221.461L403.743,221.556L405.783,222.519L407.892,229.847L410,217.877" data-legend="angular" style="stroke: rgb(255, 127, 14); fill: none;"></path><path class="line" d="M2.108,300L4.149,300L6.257,300L8.298,300L10.406,300L12.515,300L14.419,300L16.528,300L18.568,300L20.677,300L22.717,300L24.826,300L26.934,300L28.975,300L31.083,300L33.124,300L35.232,300L37.341,300L39.245,300L41.354,300L43.394,300L45.503,300L47.543,300L49.652,300L51.76,300L53.801,300L55.909,300L57.95,300L60.058,300L62.167,300L64.071,300L66.179,300L68.22,300L70.328,300L72.369,300L74.477,300L76.586,300L78.626,300L80.735,300L82.775,300L84.884,300L86.992,299.965L88.965,300L91.073,300L93.114,300L95.222,300L97.263,300L99.371,300L101.48,300L103.52,300L105.629,300L107.669,300L109.778,300L111.886,300L113.791,300L115.899,299.975L117.94,299.974L120.048,299.945L122.089,299.951L124.197,299.975L126.306,299.764L128.346,299.882L130.455,299.828L132.495,299.424L134.604,298.922L136.712,298.917L138.616,299.061L140.725,299.264L142.765,298.4L144.874,298.159L146.914,298.019L149.023,297.985L151.131,297.495L153.172,296.617L155.28,295.944L157.321,295.258L159.429,294.807L161.538,291.513L163.442,291.324L165.551,289.567L167.591,289.687L169.7,287.886L171.74,285.762L173.849,285.548L175.957,281.717L177.998,280.668L180.106,276.836L182.147,274.359L184.255,272.181L186.364,273.518L188.336,268.628L190.445,267.115L192.485,264.763L194.594,260.728L196.634,255.163L198.743,251.614L200.851,253.114L202.892,253.204L205,251.358L207.04,246.03L209.149,244.651L211.257,243.798L213.162,243.946L215.27,236.012L217.311,229.91L219.419,226.136L221.46,219.85L223.568,219.508L225.677,224.184L227.717,219.648L229.826,220.026L231.866,215.453L233.975,211.086L236.083,207.715L237.988,204.796L240.096,202.133L242.137,198.8L244.245,191.963L246.286,186.822L248.394,178.515L250.503,177.698L252.543,181.546L254.652,181.036L256.692,172.115L258.801,169.169L260.909,166.441L262.814,163.867L264.922,168.53L266.963,157.068L269.071,155.07L271.111,152.779L273.22,140.446L275.328,142.551L277.369,146.004L279.477,140.038L281.518,131.854L283.626,124.417L285.735,125.831L287.707,115.653L289.816,104.724L291.856,106.642L293.965,98.442L296.005,87.89L298.114,86.472L300.222,86.809L302.263,93.038L304.371,93.073L306.412,86.982L308.52,75.203L310.629,86.436L312.533,77.667L314.642,71.293L316.682,73.283L318.791,75.17L320.831,66.18L322.94,61.106L325.048,49.878L327.089,66.387L329.197,66.329L331.238,54.241L333.346,41.46L335.455,52.25L337.359,50.316L339.467,27.766L341.508,37.693L343.616,36.995L345.657,29.609L347.765,40.157L349.874,44.058L351.914,56.299L354.023,59.561L356.063,48.912L358.172,53.861L360.28,58.968L362.185,68.913L364.293,69.261L366.334,73.408L368.442,63.726L370.483,57.405L372.591,66.57L374.7,85.15L376.74,99.232L378.849,94.288L380.889,88.009L382.998,86.518L385.106,95.159L387.079,84.314L389.187,93.407L391.228,91.052L393.336,98.717L395.377,95.923L397.485,100.951L399.594,110.716L401.634,134.883L403.743,134.057L405.783,123.995L407.892,130.087L410,132.779" data-legend="reactjs" style="stroke: rgb(44, 160, 44); fill: none;"></path><path class="line" d="M2.108,300L4.149,300L6.257,300L8.298,300L10.406,300L12.515,300L14.419,300L16.528,300L18.568,300L20.677,300L22.717,300L24.826,300L26.934,300L28.975,300L31.083,300L33.124,300L35.232,300L37.341,300L39.245,300L41.354,300L43.394,300L45.503,300L47.543,300L49.652,300L51.76,300L53.801,300L55.909,300L57.95,300L60.058,300L62.167,300L64.071,300L66.179,300L68.22,300L70.328,300L72.369,300L74.477,300L76.586,300L78.626,300L80.735,300L82.775,300L84.884,300L86.992,300L88.965,300L91.073,300L93.114,300L95.222,300L97.263,300L99.371,300L101.48,300L103.52,300L105.629,300L107.669,300L109.778,300L111.886,300L113.791,300L115.899,300L117.94,300L120.048,300L122.089,300L124.197,300L126.306,300L128.346,300L130.455,300L132.495,300L134.604,300L136.712,300L138.616,299.979L140.725,300L142.765,299.902L144.874,300L146.914,299.927L149.023,300L151.131,299.948L153.172,299.95L155.28,299.922L157.321,299.916L159.429,299.896L161.538,299.974L163.442,299.954L165.551,299.886L167.591,299.743L169.7,299.146L171.74,299.046L173.849,298.997L175.957,298.757L177.998,299.116L180.106,298.418L182.147,298.014L184.255,296.957L186.364,297.283L188.336,297.352L190.445,295.961L192.485,296.584L194.594,296.49L196.634,296.143L198.743,294.815L200.851,294.184L202.892,292.18L205,290.049L207.04,287.998L209.149,287.114L211.257,287.392L213.162,285.082L215.27,285.861L217.311,283.536L219.419,282.842L221.46,281.489L223.568,281.075L225.677,276.503L227.717,279.363L229.826,277.708L231.866,276.326L233.975,276.885L236.083,273.244L237.988,270.199L240.096,269.791L242.137,269.972L244.245,267.853L246.286,266.185L248.394,262.18L250.503,260.489L252.543,262.171L254.652,261.024L256.692,260.544L258.801,257.876L260.909,258.882L262.814,256.2L264.922,257.862L266.963,257.981L269.071,252.919L271.111,254.195L273.22,249.738L275.328,249.332L277.369,250.76L279.477,254.405L281.518,247.738L283.626,248.876L285.735,249.938L287.707,249.944L289.816,248.519L291.856,249.453L293.965,252.691L296.005,250.075L298.114,248.559L300.222,244.814L302.263,249.501L304.371,248.663L306.412,247.394L308.52,248.153L310.629,249.26L312.533,248.11L314.642,247.007L316.682,248.268L318.791,246.652L320.831,246.09L322.94,249.721L325.048,244.845L327.089,247.461L329.197,248.937L331.238,252.701L333.346,254.924L335.455,254.92L337.359,256.696L339.467,253.886L341.508,256.663L343.616,257.05L345.657,259.928L347.765,260.095L349.874,254.738L351.914,258.639L354.023,258.254L356.063,259.273L358.172,260.598L360.28,262.407L362.185,262.576L364.293,264.38L366.334,254.25L368.442,266.462L370.483,264.7L372.591,262.689L374.7,264.082L376.74,264.131L378.849,264.72L380.889,265.368L382.998,266.004L385.106,266.406L387.079,265.436L389.187,266.77L391.228,268.09L393.336,265.612L395.377,269.861L397.485,274.596L399.594,268.812L401.634,271.656L403.743,273.891L405.783,275.613L407.892,271.726L410,273.965" data-legend="vue.js" style="stroke: rgb(214, 39, 40); fill: none;"></path><path class="line" d="M2.108,300L4.149,300L6.257,300L8.298,300L10.406,300L12.515,300L14.419,300L16.528,300L18.568,300L20.677,300L22.717,300L24.826,300L26.934,300L28.975,300L31.083,300L33.124,300L35.232,300L37.341,300L39.245,300L41.354,300L43.394,300L45.503,300L47.543,300L49.652,300L51.76,300L53.801,300L55.909,300L57.95,300L60.058,300L62.167,300L64.071,300L66.179,300L68.22,300L70.328,300L72.369,300L74.477,300L76.586,300L78.626,300L80.735,300L82.775,300L84.884,300L86.992,300L88.965,300L91.073,300L93.114,300L95.222,300L97.263,300L99.371,300L101.48,300L103.52,300L105.629,300L107.669,300L109.778,300L111.886,300L113.791,300L115.899,300L117.94,300L120.048,300L122.089,300L124.197,300L126.306,300L128.346,300L130.455,300L132.495,300L134.604,300L136.712,300L138.616,300L140.725,300L142.765,300L144.874,300L146.914,300L149.023,300L151.131,300L153.172,300L155.28,300L157.321,300L159.429,300L161.538,300L163.442,300L165.551,300L167.591,300L169.7,300L171.74,300L173.849,300L175.957,300L177.998,300L180.106,299.976L182.147,300L184.255,300L186.364,299.977L188.336,299.978L190.445,299.978L192.485,299.954L194.594,300L196.634,299.975L198.743,299.976L200.851,299.798L202.892,299.01L205,298.143L207.04,296.071L209.149,293.766L211.257,292.024L213.162,290.098L215.27,290.842L217.311,289.838L219.419,289.438L221.46,288.319L223.568,287.261L225.677,286.004L227.717,287.399L229.826,287.981L231.866,286.416L233.975,287.468L236.083,287.444L237.988,286.342L240.096,286.404L242.137,286.553L244.245,286.348L246.286,287.776L248.394,285.955L250.503,285.281L252.543,285.454L254.652,286.504L256.692,285.706L258.801,285.803L260.909,286.195L262.814,287.961L264.922,288.926L266.963,288.307L269.071,288.037L271.111,288.462L273.22,286.656L275.328,288.376L277.369,289.758L279.477,290.083L281.518,288.576L283.626,290.985L285.735,289.958L287.707,290.919L289.816,290.089L291.856,291.824L293.965,290.968L296.005,290.209L298.114,288.897L300.222,290.388L302.263,291.17L304.371,289.791L306.412,291.465L308.52,290.706L310.629,290.486L312.533,292.219L314.642,291.552L316.682,292.331L318.791,292.307L320.831,289.596L322.94,291.739L325.048,289.804L327.089,289.587L329.197,292.116L331.238,291.626L333.346,293.441L335.455,293.773L337.359,292.994L339.467,293.537L341.508,293.638L343.616,293.407L345.657,293.334L347.765,294.338L349.874,291.618L351.914,293.489L354.023,294.246L356.063,294.842L358.172,294.979L360.28,294.369L362.185,294.894L364.293,295.951L366.334,294.314L368.442,295.825L370.483,296.186L372.591,296.233L374.7,295.634L376.74,296.928L378.849,296.628L380.889,296.721L382.998,298.355L385.106,297.961L387.079,297.132L389.187,298.119L391.228,297.928L393.336,296.542L395.377,297.732L397.485,297.963L399.594,297.618L401.634,297.526L403.743,298.824L405.783,299.025L407.892,298.4L410,298.81" data-legend="vuejs2" style="stroke: rgb(148, 103, 189); fill: none;"></path><path class="line" d="M2.108,300L4.149,300L6.257,300L8.298,300L10.406,300L12.515,300L14.419,300L16.528,300L18.568,300L20.677,300L22.717,300L24.826,300L26.934,300L28.975,300L31.083,300L33.124,300L35.232,300L37.341,300L39.245,300L41.354,300L43.394,300L45.503,300L47.543,300L49.652,300L51.76,300L53.801,300L55.909,300L57.95,300L60.058,300L62.167,300L64.071,300L66.179,300L68.22,300L70.328,300L72.369,300L74.477,300L76.586,300L78.626,300L80.735,300L82.775,300L84.884,300L86.992,300L88.965,300L91.073,300L93.114,300L95.222,300L97.263,300L99.371,300L101.48,300L103.52,300L105.629,300L107.669,300L109.778,300L111.886,300L113.791,300L115.899,300L117.94,300L120.048,300L122.089,300L124.197,300L126.306,300L128.346,300L130.455,300L132.495,300L134.604,300L136.712,300L138.616,300L140.725,300L142.765,300L144.874,300L146.914,300L149.023,300L151.131,300L153.172,300L155.28,300L157.321,300L159.429,300L161.538,300L163.442,300L165.551,300L167.591,300L169.7,300L171.74,300L173.849,300L175.957,300L177.998,300L180.106,300L182.147,300L184.255,300L186.364,300L188.336,300L190.445,300L192.485,300L194.594,300L196.634,300L198.743,300L200.851,300L202.892,300L205,300L207.04,300L209.149,300L211.257,299.975L213.162,300L215.27,300L217.311,300L219.419,300L221.46,299.976L223.568,300L225.677,300L227.717,300L229.826,299.974L231.866,300L233.975,300L236.083,300L237.988,300L240.096,300L242.137,299.948L244.245,300L246.286,300L248.394,300L250.503,300L252.543,300L254.652,300L256.692,299.967L258.801,300L260.909,300L262.814,300L264.922,300L266.963,300L269.071,300L271.111,300L273.22,299.968L275.328,299.936L277.369,299.943L279.477,299.941L281.518,299.705L283.626,299.763L285.735,299.91L287.707,299.944L289.816,299.596L291.856,299.651L293.965,299.595L296.005,299.398L298.114,298.887L300.222,297.205L302.263,295.83L304.371,294.783L306.412,295.781L308.52,295.027L310.629,295.045L312.533,294.208L314.642,292.704L316.682,292.754L318.791,291.227L320.831,291.208L322.94,289.852L325.048,291.001L327.089,290.756L329.197,289.671L331.238,291.277L333.346,289.323L335.455,289.303L337.359,287.713L339.467,288.177L341.508,287.613L343.616,283.343L345.657,285.1L347.765,286.557L349.874,282.398L351.914,283.538L354.023,283.135L356.063,283.001L358.172,281.89L360.28,282.802L362.185,281.313L364.293,278.552L366.334,277.779L368.442,279.056L370.483,277.391L372.591,280.946L374.7,278.828L376.74,276.834L378.849,277.777L380.889,279.61L382.998,276.148L385.106,281.032L387.079,282.643L389.187,283.228L391.228,282.926L393.336,278.227L395.377,279.876L397.485,282.743L399.594,281.4L401.634,282.891L403.743,284.476L405.783,286.761L407.892,284.396L410,284.23" data-legend="vuejs3" style="stroke: rgb(140, 86, 75); fill: none;"></path></g></g><g transform="translate(20, 150)"><text font-family="sans-serif" transform="rotate(-90)" x="-50" y="0" dy="1em" class="axis-label y-axis-label" style="text-anchor: middle; font-weight: bold;">% of Stack Overflow questions that month</text></g><g font-family="sans-serif" class="legend" transform="translate(530, 20)" style="font-size: 12px;"><rect y="0" width="10" height="10" style="fill: rgb(31, 119, 180);"></rect><rect y="15" width="10" height="10" style="fill: rgb(255, 127, 14);"></rect><rect y="30" width="10" height="10" style="fill: rgb(44, 160, 44);"></rect><rect y="45" width="10" height="10" style="fill: rgb(214, 39, 40);"></rect><rect y="60" width="10" height="10" style="fill: rgb(148, 103, 189);"></rect><rect y="75" width="10" height="10" style="fill: rgb(140, 86, 75);"></rect><text font-size="10px" x="13" y="5" text-anchor="left" style="alignment-baseline: middle;">angularjs</text><text font-size="10px" x="13" y="20" text-anchor="left" style="alignment-baseline: middle;">angular</text><text font-size="10px" x="13" y="35" text-anchor="left" style="alignment-baseline: middle;">reactjs</text><text font-size="10px" x="13" y="50" text-anchor="left" style="alignment-baseline: middle;">vue.js</text><text font-size="10px" x="13" y="65" text-anchor="left" style="alignment-baseline: middle;">vuejs2</text><text font-size="10px" x="13" y="80" text-anchor="left" style="alignment-baseline: middle;">vuejs3</text></g></svg>